#!OML:ASF H:\Punching\Project 1\Capture day 1\Session 1\female.ASF
:FULLY-SPECIFIED
:DEGREES
1883
root 0.734124 15.4225 9.23609 12.1596 14.2149 -0.126473
lowerback -1.68166 1.84001 -1.22171
upperback -5.93907 2.39781 -1.81314
thorax -5.1675 1.21668 -1.26301
lowerneck -10.2049 -2.63046 4.89528
upperneck 29.2489 -4.4928 -0.812252
head 10.9867 -1.55281 -1.67437
rclavicle -1.88411e-014 -1.63003e-014
rhumerus 50.5514 32.1367 -7.12483
rradius 94.1388
rwrist -29.7025
rhand -8.5642 -2.57918
rfingers 7.12502
rthumb 17.3659 -31.8234
lclavicle -1.88411e-014 -1.63003e-014
lhumerus -30.6255 -56.0646 99.45
lradius 117.909
lwrist -3.07552
lhand -29.8595 5.79871
lfingers 7.12502
lthumb -3.18181 35.7547
rfemur -34.2727 -0.141847 2.6971
rtibia 27.3056
rfoot 5.08031 -11.588
rtoes -12.0313
lfemur -0.0742799 -12.7036 -11.7319
ltibia 7.67807
lfoot -17.4758 9.31681
ltoes -13.5654
1884
root 0.626997 15.4106 9.33843 12.3544 15.0882 -0.0721197
lowerback -1.71002 1.75984 -1.29713
upperback -5.98481 2.28855 -1.86953
thorax -5.20174 1.16503 -1.27662
lowerneck -10.2066 -2.75506 4.76622
upperneck 29.2471 -4.66948 -0.703763
head 10.9872 -1.63252 -1.63363
rclavicle 3.3197e-014 -5.1684e-015
rhumerus 50.7814 29.2311 -5.84563
rradius 93.8744
rwrist -27.9466
rhand -7.79492 -2.02175
rfingers 7.12502
rthumb 18.1062 -31.199
lclavicle 3.3197e-014 -5.1684e-015
lhumerus -31.7033 -55.407 99.5275
lradius 117.731
lwrist -2.61232
lhand -29.3381 5.76371
lfingers 7.12502
lthumb -2.67822 35.7266
rfemur -34.3645 -1.24347 3.52561
rtibia 28.5395
rfoot 3.28911 -11.5347
rtoes -11.9897
lfemur 0.984539 -13.4375 -11.0889
ltibia 5.28154
lfoot -16.4902 9.31905
ltoes -13.906
1885
root 0.518813 15.3992 9.4423 12.5353 15.9663 -0.0356147
lowerback -1.71835 1.67029 -1.34673
upperback -6.02237 2.16683 -1.92171
thorax -5.23799 1.10603 -1.30041
lowerneck -10.2078 -2.86458 4.64385
upperneck 29.2392 -4.82635 -0.593859
head 10.9863 -1.70255 -1.59113
rclavicle 8.90555e-014 -2.38542e-014
rhumerus 50.8708 26.2718 -4.87156
rradius 93.4831
rwrist -26.0082
rhand -6.85067 -1.70379
rfingers 7.12502
rthumb 19.0144 -30.7944
lclavicle 8.90555e-014 -2.38542e-014
lhumerus -32.7339 -54.6721 99.5216
lradius 117.526
lwrist -2.17882
lhand -28.8481 5.86156
lfingers 7.12502
lthumb -2.20498 35.8299
rfemur -34.4318 -2.20647 4.3186
rtibia 29.7178
rfoot 1.53048 -11.5678
rtoes -11.9109
lfemur 3.49508 -14.1997 -10.4439
ltibia 1.27222e-014
lfoot -14.0412 9.27609
ltoes -14.2321
1886
root 0.409982 15.3884 9.54662 12.7028 16.8424 -0.0213269
lowerback -1.70644 1.57666 -1.36297
upperback -6.0556 2.03966 -1.97313
thorax -5.28009 1.04268 -1.34239
lowerneck -10.2025 -2.96526 4.5185
upperneck 29.2286 -4.97592 -0.461629
head 10.9847 -1.76702 -1.53907
rclavicle -2.97696e-014 -9.54166e-015
rhumerus 50.8454 23.2666 -4.20708
rradius 92.8717
rwrist -23.7633
rhand -5.87167 -1.2118
rfingers 7.12502
rthumb 19.9557 -30.2071
lclavicle -2.97696e-014 -9.54166e-015
lhumerus -33.7233 -53.8643 99.443
lradius 117.297
lwrist -1.81599
lhand -28.3726 6.14155
lfingers 7.12502
lthumb -1.74575 36.1141
rfemur -34.509 -3.00395 5.06455
rtibia 30.8729
rfoot -0.121312 -11.6899
rtoes -11.6894
lfemur 3.34365 -14.9216 -9.74315
ltibia 6.36111e-015
lfoot -14.2305 9.5272
ltoes -14.5523
1887
root 0.301104 15.378 9.65083 12.8528 17.714 -0.0377953
lowerback -1.6714 1.47633 -1.33575
upperback -6.08801 1.90358 -2.02225
thorax -5.33337 0.972787 -1.40661
lowerneck -10.1913 -3.05245 4.38997
upperneck 29.232 -5.11434 -0.29907
head 10.9894 -1.82266 -1.47443
rclavicle 2.36398e-014 2.38542e-014
rhumerus 50.7551 20.234 -3.84048
rradius 91.9753
rwrist -21.032
rhand -5.16588 -0.338343
rfingers 7.12502
rthumb 20.634 -29.2616
lclavicle 2.36398e-014 2.38542e-014
lhumerus -34.7034 -52.9757 99.3169
lradius 117.058
lwrist -1.52323
lhand -27.8957 6.53397
lfingers 7.12502
lthumb -1.28517 36.5098
rfemur -34.5959 -3.63498 5.76846
rtibia 31.9954
rfoot -1.67028 -11.8967
rtoes -11.2467
lfemur 3.18836 -15.6288 -9.01011
ltibia -2.8625e-014
lfoot -14.4025 9.85511
ltoes -14.8612
1888
root 0.192695 15.3673 9.75389 12.995 18.5702 -0.0749559
lowerback -1.61269 1.37073 -1.27351
upperback -6.12599 1.76005 -2.07541
thorax -5.40535 0.897276 -1.49506
lowerneck -10.1825 -3.12914 4.26336
upperneck 29.2638 -5.24907 -0.10293
head 11.0074 -1.87138 -1.39822
rclavicle -2.51369e-014 1.27222e-014
rhumerus 50.6402 17.1905 -3.75849
rradius 90.7109
rwrist -17.6561
rhand -5.11961 1.058
rfingers 7.12502
rthumb 20.6785 -27.8604
lclavicle -2.51369e-014 1.27222e-014
lhumerus -35.7008 -52.0055 99.1562
lradius 116.832
lwrist -1.28539
lhand -27.3769 6.91665
lfingers 7.12502
lthumb -0.784093 36.895
rfemur -34.7086 -4.12394 6.42507
rtibia 33.0906
rfoot -3.10906 -12.146
rtoes -10.627
lfemur 3.02216 -16.3116 -8.25905
ltibia -2.8625e-014
lfoot -14.5616 10.2494
ltoes -15.1112
1889
root 0.0854319 15.3555 9.85511 13.1387 19.4025 -0.123557
lowerback -1.53674 1.26105 -1.18266
upperback -6.17535 1.61049 -2.13897
thorax -5.49892 0.81694 -1.61067
lowerneck -10.1597 -3.1967 4.15412
upperneck 29.3181 -5.38342 0.123607
head 11.0327 -1.91369 -1.31402
rclavicle 2.74929e-014 -3.18055e-015
rhumerus 50.5372 14.1413 -3.93486
rradius 89.0318
rwrist -13.5445
rhand -6.07621 2.90156
rfingers 7.12502
rthumb 19.7591 -26.1141
lclavicle 2.74929e-014 -3.18055e-015
lhumerus -36.7648 -50.9735 98.9978
lradius 116.653
lwrist -1.06752
lhand -26.8242 7.2747
lfingers 7.12502
lthumb -0.250293 37.2543
rfemur -34.8587 -4.51199 7.03987
rtibia 34.1702
rfoot -4.43481 -12.3974
rtoes -10.0654
lfemur 2.84072 -16.9621 -7.50253
ltibia 0
lfoot -14.7084 10.6984
ltoes -15.319
1890
root -0.0199763 15.3423 9.95396 13.2902 20.2035 -0.181636
lowerback -1.44347 1.14535 -1.06287
upperback -6.23367 1.45231 -2.21548
thorax -5.612 0.73028 -1.756
lowerneck -10.1574 -3.25061 4.09071
upperneck 29.4138 -5.51486 0.361526
head 11.078 -1.94667 -1.23433
rclavicle -3.54334e-014 5.56597e-015
rhumerus 50.4959 11.0714 -4.40494
rradius 86.9253
rwrist -8.77483
rhand -8.08821 4.97957
rfingers 7.12502
rthumb 17.824 -24.2236
lclavicle -3.54334e-014 5.56597e-015
lhumerus -37.8723 -49.8747 98.8164
lradius 116.538
lwrist -0.806247
lhand -26.2496 7.5537
lfingers 7.12502
lthumb 0.304688 37.5332
rfemur -35.0556 -4.83877 7.62793
rtibia 35.2443
rfoot -5.65915 -12.6419
rtoes -9.56894
lfemur 2.64155 -17.5724 -6.74483
ltibia -3.81667e-014
lfoot -14.8561 11.186
ltoes -15.4461
1891
root -0.123192 15.3275 10.05 13.4592 20.9608 -0.244304
lowerback -1.34554 1.01897 -0.931041
upperback -6.30106 1.27973 -2.29551
thorax -5.73873 0.635433 -1.91118
lowerneck -10.1696 -3.284 4.06532
upperneck 29.5353 -5.62924 0.6037
head 11.1363 -1.96613 -1.15818
rclavicle 2.35125e-015 -1.35174e-014
rhumerus 50.5856 7.9728 -5.18659
rradius 84.4115
rwrist -3.52279
rhand -10.8695 6.91419
rfingers 7.12502
rthumb 15.1462 -22.5115
lclavicle 2.35125e-015 -1.35174e-014
lhumerus -39.0336 -48.7116 98.63
lradius 116.514
lwrist -0.483691
lhand -25.6609 7.75205
lfingers 7.12502
lthumb 0.873236 37.73
rfemur -35.3152 -5.13076 8.20251
rtibia 36.3167
rfoot -6.80576 -12.8763
rtoes -9.11497
lfemur 2.41931 -18.1294 -5.99122
ltibia -1.27222e-014
lfoot -15.0037 11.6835
ltoes -15.4769
